<svg xmlns="http://www.w3.org/2000/svg" width="214" height="58" fill="none"><g fill="#FF79B0" clip-path="url(#a)"><path d="M33.04 17.21c0 7.03-5.62 12.72-12.55 12.72-6.93 0-12.55-5.7-12.55-12.72 0-7.02 5.62-12.71 12.55-12.71 6.93 0 12.55 5.69 12.55 12.71Z"/><path d="M53.06 17.16c0 7.06-5.64 12.77-12.6 12.77s-12.6-5.71-12.6-12.77c0-7.05 5.64-12.77 12.6-12.77s12.6 5.72 12.6 12.77Z"/><path d="M52.21 21.66c-.63 3.74-7.6 11.46-21.66 24.22-13.5-12.53-20.18-19.84-21.81-24.22l21.69-12.2 21.78 12.2Z"/><path d="M15.24 41.54c0-2.4 1.95-4.33 4.34-4.33H41.5a4.34 4.34 0 0 1 0 8.67H19.6a4.34 4.34 0 0 1-4.35-4.34h-.01Zm3.56 8.79c0-1.47 1.2-2.67 2.67-2.67H39.6a2.67 2.67 0 0 1 0 5.34H21.47a2.67 2.67 0 0 1-2.67-2.67ZM69.712 39.552c0 .341-1.013.512-3.04.512-2.048 0-3.072-.16-3.072-.48V18.72c0-.747.395-1.12 1.184-1.12h6.112c5.61 0 8.416 2.187 8.416 6.56 0 1.323-.256 2.528-.768 3.616-.512 1.067-1.237 1.92-2.176 2.56l4.032 6.72c-.17.512-.725 1.099-1.664 1.76-1.28.917-2.336 1.376-3.168 1.376-.832 0-1.45-.299-1.856-.896l-3.008-7.008h-.992v7.264Zm0-16.288v4.8h.16c2.027 0 3.04-.843 3.04-2.528 0-.768-.203-1.333-.608-1.696-.384-.384-1.024-.576-1.92-.576h-.672Zm24.699 15.872c-1.344.79-3.072 1.184-5.184 1.184s-3.893-.715-5.344-2.144c-1.45-1.45-2.176-3.445-2.176-5.984 0-2.56.693-4.619 2.08-6.176 1.408-1.557 3.179-2.336 5.312-2.336 2.133 0 3.776.544 4.928 1.632 1.173 1.088 1.76 2.41 1.76 3.968 0 3.456-1.984 5.184-5.952 5.184h-2.208c0 .64.17 1.088.512 1.344.363.235.885.352 1.568.352a9.273 9.273 0 0 0 4.256-1.024c.021-.021.117.128.288.448.512.917.768 1.696.768 2.336 0 .619-.203 1.024-.608 1.216Zm-4-9.248c0-.896-.437-1.344-1.312-1.344-.405 0-.757.128-1.056.384-.277.235-.416.587-.416 1.056v.992h1.728c.704 0 1.056-.363 1.056-1.088Zm12.715 2.176c0 2.09.789 3.136 2.368 3.136 1.024 0 1.877-.203 2.56-.608.32 0 .576.555.768 1.664.213 1.088.32 1.835.32 2.24 0 .384-.054.64-.16.768-1.131.704-2.678 1.056-4.64 1.056-1.963 0-3.638-.725-5.025-2.176-1.365-1.472-2.047-3.467-2.047-5.984 0-2.539.672-4.587 2.016-6.144 1.365-1.557 3.168-2.336 5.408-2.336 2.261 0 3.829.544 4.704 1.632.192.235.288.587.288 1.056 0 .448-.086 1.003-.256 1.664-.384 1.365-.886 2.155-1.504 2.368a1.716 1.716 0 0 1-.384.032c-.15 0-.342-.128-.576-.384-.832-.832-1.504-1.248-2.016-1.248-.491 0-.918.256-1.28.768-.363.512-.544 1.344-.544 2.496Zm9.69 6.048c-1.323-1.472-1.984-3.51-1.984-6.112 0-2.603.661-4.64 1.984-6.112 1.344-1.472 3.147-2.208 5.408-2.208 2.261 0 4.053.736 5.376 2.208 1.323 1.472 1.984 3.51 1.984 6.112 0 2.603-.661 4.64-1.984 6.112-1.323 1.472-3.115 2.208-5.376 2.208s-4.064-.736-5.408-2.208Zm5.408-9.088c-1.195 0-1.792.981-1.792 2.944s.597 2.944 1.792 2.944c1.216 0 1.824-.981 1.824-2.944s-.608-2.944-1.824-2.944Zm16.31 10.784c0 .15-.768.224-2.304.224-2.133-.064-3.2-.181-3.2-.352V29.312h-.832c-.554 0-.917-.47-1.088-1.408a5.55 5.55 0 0 1-.064-.832c0-.661.128-1.323.384-1.984.384-.939.982-1.408 1.792-1.408.811 0 1.536.192 2.176.576.64.384 1.067.768 1.28 1.152 1.344-1.152 2.944-1.728 4.8-1.728 1.856 0 3.2.501 4.032 1.504.832 1.003 1.248 2.645 1.248 4.928v9.6c0 .256-.917.384-2.752.384-1.813 0-2.72-.128-2.72-.384v-9.248c0-1.067-.373-1.6-1.12-1.6-.213 0-.512.096-.896.288-.384.17-.629.299-.736.384v10.272Zm23.033-.672c-1.344.79-3.072 1.184-5.184 1.184s-3.893-.715-5.344-2.144c-1.45-1.45-2.176-3.445-2.176-5.984 0-2.56.694-4.619 2.08-6.176 1.408-1.557 3.179-2.336 5.312-2.336 2.134 0 3.776.544 4.928 1.632 1.174 1.088 1.76 2.41 1.76 3.968 0 3.456-1.984 5.184-5.952 5.184h-2.208c0 .64.171 1.088.512 1.344.363.235.886.352 1.568.352a9.27 9.27 0 0 0 4.256-1.024c.022-.021.118.128.288.448.512.917.768 1.696.768 2.336 0 .619-.202 1.024-.608 1.216Zm-4-9.248c0-.896-.437-1.344-1.312-1.344-.405 0-.757.128-1.056.384-.277.235-.416.587-.416 1.056v.992h1.728c.704 0 1.056-.363 1.056-1.088Zm12.715 2.176c0 2.09.789 3.136 2.368 3.136 1.024 0 1.877-.203 2.56-.608.32 0 .576.555.768 1.664.213 1.088.32 1.835.32 2.24 0 .384-.054.64-.16.768-1.131.704-2.678 1.056-4.64 1.056-1.963 0-3.638-.725-5.024-2.176-1.366-1.472-2.048-3.467-2.048-5.984 0-2.539.672-4.587 2.016-6.144 1.365-1.557 3.168-2.336 5.408-2.336 2.261 0 3.829.544 4.704 1.632.192.235.288.587.288 1.056 0 .448-.086 1.003-.256 1.664-.384 1.365-.886 2.155-1.504 2.368a1.716 1.716 0 0 1-.384.032c-.15 0-.342-.128-.576-.384-.832-.832-1.504-1.248-2.016-1.248-.491 0-.918.256-1.28.768-.363.512-.544 1.344-.544 2.496Zm15.674 7.744c0 .256-.896.384-2.688.384-2.133-.085-3.2-.224-3.2-.416V28.448h-1.632c-.426 0-.64-.736-.64-2.208 0-.384.032-.853.096-1.408.086-.555.246-.832.48-.832h1.696v-2.816c0-.427.896-.64 2.688-.64 1.814 0 2.72.17 2.72.512v2.048l.032.896h2.72c.363 0 .544.747.544 2.24 0 1.493-.181 2.24-.544 2.24h-2.272v11.328Zm6.438-11.424c-.598-1.067-.896-1.93-.896-2.592 0-.683.181-1.12.544-1.312 1.216-.533 2.88-.8 4.992-.8 2.133 0 3.637.501 4.512 1.504.874.981 1.312 2.443 1.312 4.384v5.056h1.088c.362 0 .64.213.832.64.213.427.319 1.013.319 1.76 0 .747-.191 1.483-.575 2.208-.363.725-.864 1.088-1.504 1.088-1.152 0-2.08-.31-2.784-.928a2.578 2.578 0 0 1-.736-.928c-.982 1.237-2.507 1.856-4.576 1.856-1.558 0-2.87-.555-3.936-1.664-1.067-1.11-1.6-2.421-1.6-3.936 0-3.477 2.08-5.216 6.24-5.216h1.759v-.32c0-.555-.095-.907-.287-1.056-.171-.17-.587-.256-1.248-.256-.811 0-1.963.17-3.456.512Zm2.56 5.888c0 .47.128.832.384 1.088.256.235.576.352.96.352.405 0 .768-.16 1.087-.48v-2.464h-.895c-1.024 0-1.536.501-1.536 1.504Zm18.963 5.696c0 .15-.971.224-2.912.224-1.942-.043-2.912-.128-2.912-.256V29.312h-.864c-.342 0-.619-.203-.832-.608-.192-.427-.288-.95-.288-1.568 0-2.304.682-3.456 2.048-3.456.96 0 1.76.299 2.4.896.64.576.96 1.237.96 1.984.448-.875 1.045-1.568 1.792-2.08.768-.533 1.546-.8 2.336-.8 1.237 0 1.984.32 2.24.96.064.17.096.427.096.768 0 .32-.107.907-.32 1.76-.192.853-.395 1.472-.608 1.856-.214.384-.342.576-.384.576-.043 0-.246-.075-.608-.224-.342-.17-.651-.256-.928-.256-.811 0-1.216.64-1.216 1.92v8.928Z"/></g><defs><clipPath id="a"><path fill="#fff" d="M0 0h214v58H0z"/></clipPath></defs></svg>