<svg xmlns="http://www.w3.org/2000/svg" width="820" height="1202" fill="none"><path fill="#fff" fill-rule="evenodd" d="M114.306 1180.74c11.971.74 23.941 1.32 35.911 1.77 156.53 5.83 312.934-12.01 469.368-15.92 54.477-1.43 108.675-.71 163.012 3.66 5.324.43 11.412-5.3 10.758-10.76-10.039-86.65-22.598-173.075-29.107-260.085-.005-4.602.589-9.197 2.171-13.533.298-.34 1.844-4.152 3.219-4.388-.449.332 1.586-.252.29-.152 7.856-1.286 15.561-9.766 9.86-17.881-58.732-90.017-138.906-172.177-164.7-279.095-6.094-28.906-28.106-30.693-51.556-42.618-7.316-4.351-25.207-16.405-28.119-24.785-6.955-30.203 5.293-59.792-30.49-72.013-23.622-6.549-65.374-12.09-89.275-5.183-29.155 9.703-26.973 42.557-43.884 65.16-8.747 13.074-23.657 30.974-37.425 32.977-6.673.971-11.588-12.527-18.25-11.598C212.235 551.519 70.7406 723.585 26.1046 818.835c-10.059 29.977 22.3817 20.933 20.3887 51.063-2.457 57.161-7.8307 130.332-4.6437 187.562 2.985 33.22.776 68.02 11.101 99.99-2.779 3.37 1.214 6.78 4.472 8.25 4.105 6.98 44.4974 14.07 56.8834 15.04Z" clip-rule="evenodd"/><path fill="#000" fill-rule="evenodd" d="M384.683 468.917c2.7-12.149 22.03-6.939 18.72 5.16-5.13 18.711-15.77 36.391-30.789 48.801-11.601 9.58-27.41 18.129-43.091 19.709 1.47 1.431 2.88 2.961 4.36 4.42 3.34 3.32 6.89 6.4 10.55 9.36 7.521 6.08 15.34 11.55 23.88 16.13 34.11 18.301 72.641 22.521 110.74 18.26 18.08-2.02 36.43-5.449 53.43-12.06 7.881-3.059 15.54-7.08 22.301-12.159l1.769-1.328c3.555-2.684 8.298-6.472 10.52-10.612-6.76 1.519-15.31-5.681-20-9.87-5.129-4.6-9.45-10.531-12.64-16.611-6.25-11.929-9.56-27.319-4.319-40.11.349-.85 1.469-.709 1.569.211 1.55 14.91 5.57 28.89 16.271 39.93 4.75 4.89 10.439 8.99 16.649 11.839l.874.401c2.646 1.224 5.431 2.66 6.546 5.279.431-.05.86-.01 1.27.101.37.099.71.21 1.04.33-.74-1.45-1.129-3.16-1.06-5.181.261-7.83 11.011-8.069 12.5-1.099-.27-.92-.63-.03.05.25-.011-.081-.03-.171-.05-.251l.02.074.041.176-.011.001c.027.126.049.257.064.39l.014.174-.009-.146a3.886 3.886 0 0 0-.036-.292l-.023-.126c.1.049.24.08.4.08l.066.026c.251.108 1.134.52 1.395.624 1.789.66 3.789.869 5.619 1.439 3.971 1.221 7.471 3.241 9.891 6.68 1.74 2.471 2.709 5.301 3.109 8.24 17.57 8.451 34.2 19.43 48.131 33.021 31.09 30.319 52.769 68.269 70.559 107.55 9.055 19.997 17.123 40.419 25.015 60.896l1.245 3.234c8.46 22.009 15.941 44.259 17.78 67.92.17 2.12-.53 4.11-1.74 5.76.43 1.78.651 3.56.59 5.299-.01.271-.029.541-.05.811 2.84-.05 5.62 1.14 8.26 4.48 1.07-.34 2.23-.381 3.37-.011 6.95 2.22 8.07 9.851 9.38 16.241 1.351 6.6 1.94 13.36 1.95 20.089 0 2.411-1.38 5.451-3.72 6.481-4.4 1.939-9.139 3.21-13.69 4.97-3.42 1.32-6.85 2.57-10.31 3.74 1.92 3.349 2.54 8.01 3.58 11.54 1.63 5.51 2.94 11.04 4.041 16.68 7.459 38.35 12.629 77.112 19.609 115.542 3.49 19.25 7.551 38.37 11.69 57.49 2.04 9.4 4.21 18.78 6.54 28.12 1.241 4.98 2.53 9.96 3.86 14.91.387 1.44.778 2.89 1.173 4.33l.697 2.52c1.52.84 2.82 2.11 3.72 3.85 3.291 6.36 1.4 13.53-4.91 17.11-6.86 3.9-15.049.22-18.83-6.11-2.66-4.47-3.53-10.39-4.84-15.36-1.48-5.58-2.89-11.19-4.25-16.8-9.239-38.11-15.426-76.9-20.089-115.82l-.331-2.78c-2.37-20.042-4.66-40.132-6.14-60.262-.73-9.89-1.31-19.78-1.67-29.691-.18-5.099.11-10.229.4-15.32.13-2.229.32-4.47.39-6.699l.023-.318c.018-.226.044-.523.065-.835l.022-.377c-6.9 2.16-13.9 3.96-20.969 5.479-15.041 3.25-30.431 5.061-45.781 4.141 2.14 25.42 4.93 50.779 8.83 75.969 3.76 24.263 8.1 48.473 13 72.533 2.451 12.09 5.1 24.15 7.89 36.17 1.5 6.42 3.21 12.8 4.561 19.25.799 3.84 1.049 7.05-.561 10.64 1.773 4.83 3.347 9.68 4.896 14.25l.464 1.36c2.74 8 7.94 16.18 2.51 24.04-2.809 4.06-7.389 6.38-12 6.52-.08.05-.17.11-.26.16-2.48 1.33-5.34 1.59-8.06 1.02-4.13.81-8.27 1.59-12.42 2.3-10.25 1.77-20.55 3.23-30.87 4.46-19.65 2.34-39.43 3.62-59.199 4.33-72.381 2.61-144.841-1.97-217.25-.65-36.891.67-73.781 2.33-110.611 4.53-18.38 1.1-36.77 2.28-55.16 3.19l-5.692.27c-16.446.79-32.904 1.4-49.338.2-.32-.02-.57-.15-.74-.33-5.67-.64-11.369-5.86-10.8-11.89 2.45-25.68 4.9-51.36 7.36-77.05 4.37-45.77 8.78-91.54 13.24-137.303l.645-6.606c1.498-15.419 2.929-30.875 3.655-46.354-3.66-.259-7.309-.589-10.96-.99-39.555-4.331-77.4753-16.294-113.8847-32.01l-1.4752-.639c-3.28-1.431-6.87-2.861-10.55-4.39.061 6.989-.17 13.989-.2 20.909-.05 11.491.04 22.981.07 34.46.07 23.66.97 47.33 2.15 70.951 2.07 41.722 4.5 83.382 8.18 125.002.93 10.47 2.191 20.92 3.08 31.39.531 6.17-.74 11.31-6.389 14.55-2.781 1.6-4.931.93-7.691-.36-6.74-3.16-6.93-10.63-7.57-17.13-.489-4.9-.94-9.8-1.38-14.71-.939-10.47-1.75-20.94-2.41-31.43-2.609-41.68-3.37-83.32-1.57-125.052.8357-19.519 2.0422-39.081 3.6435-58.565l.3765-4.495c1.32-15.571 2.17-31.91 4.9-47.58-11.01-4.88-21.92-11.09-26.98-21.411-6.559-13.4.65-24.859 10.92-32.75-.1-1.33 0-2.65.28-3.849 2.95-12.771 7.89-25.391 12.66-37.57 4.81-12.241 10.12-24.29 15.96-36.081 23.44-47.23 55.4599-90.389 93.6299-126.75 18.96-18.059 39.71-34.75 61.86-48.75 10.98-6.929 22.24-13.33 33.9-19.029l1.724-.84c8.117-3.939 17.221-8.127 26.247-10.32.939-.7 1.889-1.36 2.849-1.99 3.55-2.361 8.37-.651 10.47 2.719 1.021-.79 2.2-1.489 3.55-2.12l1.334-.609c8.1-3.647 17.825-7.057 26.616-4.66 5.46 1.49 9.76 5.51 11.691 10.63 4.429-2.34 8.779-4.75 13.029-7.7 6.83-4.72 13.02-10.581 18.58-16.731 11.15-12.369 19.25-26.859 22.87-43.17Z" clip-rule="evenodd"/><path fill="#A06AE4" d="M330.523 543.499c1.47 1.431 2.88 2.961 4.36 4.42 3.34 3.32 6.89 6.4 10.55 9.36 7.521 6.08 15.34 11.55 23.88 16.13 34.11 18.301 72.641 22.521 110.74 18.26 18.08-2.02 36.43-5.449 53.43-12.06 7.881-3.059 15.54-7.08 22.301-12.159l1.769-1.328c3.555-2.684 8.298-6.471 10.52-10.612l4.95-8.931c.431-.05.86-.01 1.27.101.37.099.71.21 1.04.33-.74-1.45-1.129-3.16-1.06-5.181.261-7.83 11.011-8.069 12.5-1.099l.02.073.041.177c.1.049.239.08.399.08l.066.026c.251.108 1.134.52 1.395.624 1.789.66 3.789.869 5.619 1.439 3.971 1.221 7.471 3.241 9.891 6.68 1.74 2.471 2.709 5.301 3.109 8.24 17.57 8.451 34.2 19.43 48.131 33.021 31.09 30.319 52.769 68.269 70.559 107.55 9.055 19.998 17.123 40.419 25.015 60.896l1.245 3.234c8.46 22.009 15.941 44.259 17.78 67.92.17 2.12-.53 4.11-1.74 5.76.43 1.78.651 3.56.59 5.299-.01.271-.029.541-.05.811 2.84-.05 5.62 1.14 8.26 4.48 1.07-.34 2.23-.381 3.37-.011 6.95 2.22 8.07 9.851 9.38 16.241 1.351 6.6 1.94 13.36 1.95 20.089 0 2.411-1.38 5.451-3.72 6.481-4.4 1.939-9.139 3.21-13.69 4.97-3.42 1.32-6.85 2.57-10.31 3.74l-5.25 1.72c-6.9 2.16-13.9 3.96-20.969 5.479-15.041 3.25-30.431 5.061-45.781 4.141 2.14 25.42 4.93 50.779 8.83 75.969 3.76 24.261 8.1 48.471 13 72.531 2.451 12.09 5.1 24.15 7.89 36.17 1.5 6.42 3.21 12.8 4.561 19.25.799 3.84 1.049 7.05-.561 10.64 1.773 4.83 3.347 9.68 4.896 14.25l.464 1.36c2.74 8 7.94 16.18 2.51 24.04-2.809 4.06-7.389 6.38-12 6.52-.08.05-.17.11-.26.16-2.48 1.33-5.34 1.59-8.06 1.02-4.13.81-8.27 1.59-12.42 2.3-10.25 1.77-20.55 3.23-30.87 4.46-19.65 2.34-39.43 3.62-59.199 4.33-72.381 2.61-144.841-1.97-217.25-.65-36.891.67-73.781 2.33-110.611 4.53-18.38 1.1-36.77 2.28-55.16 3.19l-5.692.28c-16.446.78-32.904 1.39-49.338.19-.32-.02-.57-.15-.74-.33-5.67-.64-11.369-5.86-10.8-11.89 2.45-25.68 4.9-51.36 7.36-77.05 4.37-45.77 8.78-91.54 13.24-137.301l.645-6.606c1.498-15.419 2.929-30.874 3.655-46.354-3.66-.259-7.309-.589-10.96-.99-39.555-4.33-77.4753-16.294-113.8847-32.01l-1.4752-.639c-3.28-1.431-6.87-2.861-10.55-4.39l-4.81-2.06c-11.01-4.88-21.92-11.09-26.98-21.411-6.559-13.4.65-24.859 10.92-32.75-.1-1.33 0-2.65.28-3.849 2.95-12.771 7.89-25.391 12.66-37.57 4.81-12.241 10.12-24.29 15.96-36.081 23.44-47.23 55.4599-90.389 93.6299-126.75 18.96-18.059 39.71-34.75 61.86-48.75 10.98-6.929 22.24-13.33 33.9-19.029l1.724-.839c8.117-3.939 17.221-8.128 26.247-10.321.939-.7 1.889-1.36 2.849-1.99 3.55-2.361 8.37-.651 10.47 2.719 1.021-.79 2.2-1.489 3.55-2.12l1.334-.609c8.1-3.647 17.825-7.057 26.616-4.66 5.46 1.49 9.76 5.51 11.691 10.63l-.681 6.069Z"/><path stroke="#000" stroke-linejoin="round" stroke-width="11" d="M586.773 540.73c-1.489-6.97-12.239-6.731-12.5 1.099-.069 2.021.32 3.731 1.06 5.181-.33-.12-.67-.231-1.04-.33-.41-.111-.839-.151-1.27-.101l-4.95 8.931c-2.222 4.141-6.965 7.928-10.52 10.612l-1.769 1.328c-6.761 5.079-14.42 9.1-22.301 12.159-17 6.611-35.35 10.04-53.43 12.06-38.099 4.261-76.63.041-110.74-18.26-8.54-4.58-16.359-10.05-23.88-16.13-3.66-2.96-7.21-6.04-10.55-9.36-1.48-1.459-2.89-2.989-4.36-4.42l.681-6.069c-1.931-5.12-6.231-9.14-11.691-10.63-8.791-2.397-18.516 1.013-26.616 4.66l-1.334.609c-1.35.631-2.529 1.33-3.55 2.12-2.1-3.37-6.92-5.08-10.47-2.719-.96.63-1.91 1.29-2.849 1.99-9.026 2.193-18.13 6.382-26.247 10.321l-1.724.839c-11.66 5.699-22.92 12.1-33.9 19.029-22.15 14-42.9 30.691-61.86 48.75-38.17 36.361-70.1899 79.52-93.6299 126.75-5.84 11.791-11.15 23.84-15.96 36.081-4.77 12.179-9.71 24.799-12.66 37.57-.28 1.199-.38 2.519-.28 3.849-10.27 7.891-17.479 19.35-10.92 32.75 5.06 10.321 15.97 16.531 26.98 21.411l4.81 2.06c3.68 1.529 7.27 2.959 10.55 4.39l1.4752.639c36.4094 15.716 74.3297 27.68 113.8847 32.01 3.651.401 7.3.731 10.96.99-.726 15.48-2.157 30.935-3.655 46.354l-.645 6.606c-4.46 45.761-8.87 91.531-13.24 137.301-2.46 25.69-4.91 51.37-7.36 77.05-.569 6.03 5.13 11.25 10.8 11.89.17.18.42.31.74.33 16.434 1.2 32.892.59 49.338-.19l5.692-.28c18.39-.91 36.78-2.09 55.16-3.19 36.83-2.2 73.72-3.86 110.611-4.53 72.409-1.32 144.869 3.26 217.25.65 19.769-.71 39.549-1.99 59.199-4.33 10.32-1.23 20.62-2.69 30.87-4.46 4.15-.71 8.29-1.49 12.42-2.3 2.72.57 5.58.31 8.06-1.02.09-.05.18-.11.26-.16 4.611-.14 9.191-2.46 12-6.52 5.43-7.86.23-16.04-2.51-24.04l-.464-1.36c-1.549-4.57-3.123-9.42-4.896-14.25 1.61-3.59 1.36-6.8.561-10.64-1.351-6.45-3.061-12.83-4.561-19.25-2.79-12.02-5.439-24.08-7.89-36.17-4.9-24.06-9.24-48.27-13-72.531-3.9-25.19-6.69-50.549-8.83-75.969 15.35.92 30.74-.891 45.781-4.141 7.069-1.519 14.069-3.319 20.969-5.479l5.25-1.72c3.46-1.17 6.89-2.42 10.31-3.74 4.551-1.76 9.29-3.031 13.69-4.97 2.34-1.03 3.72-4.07 3.72-6.481-.01-6.729-.599-13.489-1.95-20.089-1.31-6.39-2.43-14.021-9.38-16.241-1.14-.37-2.3-.329-3.37.011-2.64-3.34-5.42-4.53-8.26-4.48.021-.27.04-.54.05-.811.061-1.739-.16-3.519-.59-5.299 1.21-1.65 1.91-3.64 1.74-5.76-1.839-23.661-9.32-45.911-17.78-67.92l-1.245-3.234c-7.892-20.477-15.96-40.898-25.015-60.896-17.79-39.281-39.469-77.231-70.559-107.55-13.931-13.591-30.561-24.57-48.131-33.021-.4-2.939-1.369-5.769-3.109-8.24-2.42-3.439-5.92-5.459-9.891-6.68-1.83-.57-3.83-.779-5.619-1.439-.261-.104-1.144-.516-1.395-.624l-.066-.026c-.16 0-.299-.031-.399-.08m-.061-.25c-.27-.92-.63-.03.05.25m-.05-.25c.021.08.039.169.05.25m-.05-.25.02.073.041.177m-.011 0h.011m-.011 0c.027.126.049.257.064.39l.014.174-.009-.146a3.886 3.886 0 0 0-.036-.292l-.022-.126"/><path fill="#FCF9F9" fill-rule="evenodd" d="M771.573 858.917c-.76.221-1.56.301-2.39.2 1.5.176-1.504 1.063-2.328 1.488l-.062.033c-1.5.859-3.009 1.689-4.54 2.49-3.57 1.879-7.219 3.569-10.93 5.16-7.31 3.11-14.86 5.5-22.61 7.25-7.58 1.709-15.53 2.709-23.3 2.869-5.2.1-11.37-.139-16.75-1.67-.724 9.584-.729 16.114 2.337 25.263 3.646 1.315 5.962 1.311 10.369.561 10.625-2.438 21.24-4.936 31.724-7.974 7.87-2.279 15.63-4.949 23.3-7.83 4.02-1.51 8.01-3.109 11.95-4.829 1.961-.856 3.8-1.875 5.616-2.906l1.554-.884c-.36-4.21-1.02-8.34-1.979-12.5-.5-2.2-1.351-4.46-1.961-6.721ZM52.5552 813c-1.35 4.381-3.42 8.471-8.14 9.461-1.67.35-3.069.16-4.23-.41l-.2784.561c-3.8808 7.966-5.0205 16.373 3.9084 22.509 4.031 2.77 8.42 5.17 12.96 7.319 8.1187 3.863 16.7648 6.969 24.9165 10.128l1.6235.633c14.58 5.72 29.3898 10.93 44.4298 15.289 15.261 4.41 30.79 7.95 46.511 10.2 6.629.941 13.309 1.601 20 2.031.109-9 .059-18.01.029-27.01-2.38-.301-4.74-.62-7.019-.891-6.941-.809-13.861-1.799-20.741-3.029-14.37-2.57-28.59-6.12-42.46-10.66-25.6998-8.43-49.6098-20.481-71.5098-36.131ZM325.763 538.827c-5.84-6.179-17.01-3.949-24.059-.949-2.131.91-4.281 1.83-6.321 2.94l-.395.221c-2.376 1.368-2.364 2.181-1.204 4.908 1.509 3.591 3.609 7.06 5.609 10.39 8.561 14.291 19.83 26.731 32.7 37.24 45.58 37.2 111.06 50.321 168.06 37.861 27.356-5.974 53.744-18.032 73.882-37.808l1.834-1.825c8.12-8.125 19.266-19.886 18.484-31.927-.37-5.791-5.1-6.121-9.93-7.24-1.979-.46-3.87-1.111-5.51-2.03 1.32 5.69-5.709 14.149-9.34 17.7-7.61 7.449-16.77 13.269-26.459 17.62-18.441 8.29-38.5 12.21-58.471 14.689-22.66 2.821-45.81 2.571-68.3-1.599-19.57-3.63-38.86-10.5-55.7-21.2-7.72-4.901-15.33-10.491-21.77-17l-1.369-1.384c-4.649-4.71-10.059-10.405-12.841-16.586-1.06.01-2.11-.021-3.16-.091-.74-.039-1.139-1.09-.4-1.48.83-.44 1.66-.879 2.49-1.309-.139-.461-.26-.91-.36-1.37-.08-.39.33-.75.69-.53.5.299.98.62 1.45.959.13-.059.26-.129.39-.2Z" clip-rule="evenodd"/><path fill="#fff" fill-rule="evenodd" d="M667.867 203.178c-10.301-37.186-49.676-53.412-85.138-55.987-96.014-9.981-193.744 43.543-236.31 130.334-34.073 65.903-35.14 135.133 38.102 172.762 4 2.205 8.177 4.562 12.443 6.702 3.706 3.446 7.523 6.757 11.689 9.537 39.883 26.226 88.834 37.569 136.272 35.109 70.041-1.412 95.045-48.939 110.346-109.888 16.138-60.679 25.163-126.521 12.596-188.569Z" clip-rule="evenodd"/><path fill="#000" fill-rule="evenodd" d="M713.844 553.684c-3.27-9.89-7.37-19.48-11.2-29.17-.81-4.83-1.35-9.7-1.489-14.61-.531-17.54 2.75-35.23 6.429-52.31 7.48-34.71 15.41-69.06 19.39-104.41 7.11-63.23 2.88-128.98-25.88-186.7-24.92-50-67.15-90.8899-121.7-106.2099-16.126-4.531-32.723-7.03-49.434-8.028-2.069-.329-4.135-.651-6.191-.961-23.244-3.504-46.774-5.25-70.268-3.739-38.96 2.507-77.556 13.703-110.004 35.847-32.669 22.2969-55.881 53.5609-66.682 91.6939-11.236 39.67-10.283 82.633-29.686 119.825-5.732 10.988-12.423 21.434-18.804 32.054-16.931 18.891-35.313 39.892-39.341 65.867-4.97 32.101 13.5 59.231 30.98 84.281 15.8 22.62 37.24 53.86 20.98 81.71-7.67 13.14-19.96 22.97-29.19 34.95-9.57 12.44-17.04 26.72-20.9 41.98-7.25 28.659-.58 58.53 18.81 80.93 10.1 11.66 23.07 19.37 37.11 25.38 14.37 6.14 28.41 11.97 40.29 22.42 5.43 4.77 10.4 10 15.1 15.48 4.38 6.85 9.48 13.25 15.23 19.11 6.33 6.45 18.73-2.38 12.92-9.97-.43-.56-.85-1.11-1.28-1.67-4.25-5.54-8.52-11.08-12.99-16.44-13.33-21.121-18.46-46.98-11.83-71.65 1.72-6.41 4.14-12.49 7.151-18.23.639 1.67 1.339 3.32 2.079 4.95 2.88 6.32 6.921 13.809 12.06 20.21.2 4.389.861 8.74 2.14 13 7.92 26.41 34.4 39.44 58.28 49.58 2.34 1 4.65 1.96 6.92 2.91 6.24 2.609 12.84-6.28 8.95-11.641-1.02-1.409-2.01-2.849-2.95-4.309-11.2-17.34-16.53-38.08-13.51-58.74 3.18-21.85 16.06-39.93 28.85-57.28 12.56-17.06 26.05-34.47 31.67-55.28 6.22-22.99.56-45.91-9.04-67.07-8.79-19.363-20.499-37.21-30.318-56.04a218.751 218.751 0 0 0 10.405 9.724c4.019 3.518 8.148 7.544 12.911 10.024 3.522 1.833 7.05-2.555 4.261-5.522-3.666-3.898-8.357-6.91-12.428-10.389-3.908-3.339-7.703-6.812-11.404-10.379-4.557-4.391-8.892-8.989-13.072-13.726-3.345-8.521-6.101-17.271-8.345-26.152-3.05-12.02-5.87-24.81-5.65-37.27.22-12.78 6.86-21.73 15.7-30.31 3.744-3.633 7.524-7.223 11.297-10.82 8.036-5.899 15.616-12.489 22.979-19.061 13.12-11.711 25.81-24.09 37.929-36.831 3.251-3.418 6.475-6.874 9.659-10.37 11.125-11.416 21.735-23.336 31.736-35.668 9.94-3.62 19.49-8.41 28.45-14.05-3.9 3.95-7.84 7.85-11.76 11.78-8.73 8.76-17.799 17.56-27.92 24.699-1.04.741-.41 2.311.871 2.061 12.869-2.57 24.909-6.85 36.149-13.67 11.43-6.94 21.5-16.37 30.9-25.83 5.32-2.4 10.451-5.49 15.14-8.53.25-.16.5-.33.75-.491-4.62 14.641-11.399 31.221-25.85 36.441-.47.17-.44.95.12.92 12.174-.714 21.958-6.191 29.682-14.174 6.212-4.47 12.14-9.207 17.797-14.364 5.48-4.996 10.671-10.354 15.601-15.902-6.89 13.649-14.608 26.995-22.22 40.19-.4.7.44 1.65 1.16 1.16 16.07-10.88 28.26-24.92 38.23-41.521 1.472-2.444 2.877-4.928 4.247-7.431-1.034 3.917-2.163 7.809-3.372 11.681-2.189 7.009-4.344 14.034-6.537 21.039-1.182 3.777-2.623 7.468-4.204 11.096-1.132 2.596-2.614 5.187-2.844 8.034-.015.189.191.313.356.272 6.408-1.602 12.375-8.91 16.941-13.437 2.543-2.521 4.925-5.288 7.116-8.206.407 16.807.687 33.616.317 50.473-.689 30.96-2.689 61.91-5.25 92.769-2.26 27.281-3.93 55.911-19.15 79.621-11.78 18.35-30.88 31.049-51.63 37.2-1.83.55-3.67 1.04-5.52 1.48-30.04 7.13-59.96-.95-86.52-15.23-7.98-4.29-14.8 7.349-7.1 12.139 28.82 17.941 65.35 24.051 97.97 16.011-1.029 38.529 17.96 75.08 36.85 107.76 10.57 18.29 21.15 36.46 28.621 56.29 6.339 16.84 10.649 34.31 12.099 52.28 1.72 21.18.03 42.48-2.93 63.48-.16 1.139-.32 2.29-.49 3.429-.66 4.511 3.39 8.29 7.78 5.981 19.41-10.2 27.78-31.941 32.87-52.04 4.76-18.83 7.99-38.03 9.79-57.36 2.64 7.29 4.78 14.76 6.44 22.379.231 1.091.45 2.181.67 3.271 1.26 6.37 10.9 5.92 12.44 0 .28-1.07.55-2.14.8-3.22 7.95-32.15 10.09-65.68 5.89-98.551-2.21-17.289-5.9-34.349-11.38-50.899" clip-rule="evenodd"/><path fill="#000" fill-rule="evenodd" d="M555.587 464.926c-6.723-2.742-12.721-7.316-17.106-13.16-1.524-2.031-1.92-4.177-1.6-6.139.36-2.206 1.665-4.205 3.445-5.547 1.786-1.345 4.019-2.008 6.178-1.67 1.877.294 3.744 1.321 5.223 3.452l.308.426c2.607 3.527 6.005 6.42 9.875 8.286 3.731 1.798 7.904 2.637 12.222 2.149 8.224-.929 13.892-5.377 19.917-11.417.747-.762 1.494-1.549 2.245-2.348.474-.724 1.132-1.19 1.863-1.434.811-.271 1.729-.256 2.569.038.811.283 1.536.819 2.021 1.532.462.678.724 1.516.639 2.48-.551 6.259-3.824 11.845-8.472 16.231-5.162 4.872-12.005 8.242-18.448 9.424-7.098 1.302-14.33.369-20.879-2.303Zm24.227-96.559c7.552 4.59 19.058 15.293 10.934 26.672-9.562 10.034-23.33-1.47-30.114-6.673-6.291-4.032-13.359 6.338-7.522 11.047 49.024 36.295 68.919-29.846 30.522-36.443-4.228-.727-5.798 3.977-3.82 5.397Zm-87.851-42.221c.835-10.356 16.607-12.708 18.176-2.46 1.405 9.18-.249 17.613-4.384 25.878-3.951 7.896-13.881 4.212-14.632-2.978-1.007-9.638.321-13.998.84-20.44Zm120.064-4.585c2.199-2.88 5.374-4.846 9.178-3.735 11.885 3.473 8.382 20.346 4.208 28.559-2.268 4.46-9.599 5.591-12.912 1.664-5.4-6.404-7.986-19.193-1.121-25.501.186-.326.393-.655.647-.987ZM505.588 280.83l1.877-.328c5.808-1.005 13.029-1.97 17.138 2.699 2.179 2.476 2.929 7.078 0 9.448-5.152 4.17-10.848 2.554-17.022 2.907-5.088.292-9.978 1.134-14.879 2.535-10.752 3.073-19.513 8.683-28.696 14.843-1.205.808-2.435-.733-1.86-1.86 5.301-10.383 15.574-18.912 25.864-24.111 5.492-2.775 11.502-5.077 17.578-6.133Zm95.605-4.651 1.437.294c15.637 3.269 35.953 9.798 43.358 25.158.283 2.171-.016 2.637-.258 2.941l-.081.101c-.199.26-.359.618-1.3.914-.262-.063-.525-.129-.792-.199-3.394-.889-6.08-2.114-8.68-3.386l-2.819-1.389c-3.27-1.603-6.57-3.149-10.066-4.289-7.462-2.434-15.138-4.149-22.932-5.065-1.69-.198-3.316-.768-4.6-1.745-1.218-.928-2.149-2.212-2.573-3.919-.55-2.209-.392-3.881.793-5.874.892-1.497 2.167-2.534 3.631-3.13 1.493-.607 3.192-.75 4.882-.412Z" clip-rule="evenodd"/></svg>