<svg xmlns="http://www.w3.org/2000/svg" width="16" height="16" fill="none"><path fill="#FF79B0" d="M8.28 4.72A3.66 3.66 0 0 1 4.64 8.4 3.66 3.66 0 0 1 1 4.7a3.66 3.66 0 0 1 3.64-3.68 3.66 3.66 0 0 1 3.64 3.69Z"/><path fill="#FF79B0" d="M14.09 4.7c0 2.05-1.64 3.7-3.66 3.7a3.68 3.68 0 0 1-3.65-3.7C6.78 2.66 8.4 1 10.43 1a3.68 3.68 0 0 1 3.66 3.7Z"/><path fill="#FF79B0" d="M13.84 6c-.19 1.1-2.2 3.33-6.28 7.03C3.64 9.4 1.7 7.28 1.23 6.01l6.3-3.54L13.83 6Z"/><path fill="#FF79B0" d="M3.12 11.77c0-.7.56-1.25 1.26-1.25h6.35a1.26 1.26 0 1 1 0 2.51H4.38c-.7 0-1.26-.56-1.26-1.26ZM4.15 14.32c0-.43.35-.77.77-.77h5.26a.77.77 0 1 1 0 1.55H4.92a.77.77 0 0 1-.77-.78Z"/></svg>