<svg xmlns="http://www.w3.org/2000/svg" fill="none" viewBox="0 0 47 54"><mask id="a" fill="#ff79b0"><path d="M6.48 14.043c-2.417.574-5.464 3.572-5.464 3.572-.16 2.13.921 3.219 1.366 5.102l2.732 4.082 6.993 7.716a3 3 0 0 0 2.223.985h19.51c.106 0 .215 0 .313-.041.377-.157 1.528-.904 4.347-4.459 3.642-4.592 4.5-5 6.5-9l1.5-6s-3.472-3.307-6.33-2.977c-3.042.351-3.43 4.17-6.373 5.102-3.826 1.21-6.05-2.331-10.017-2.041-2.926.214-4.352 2.037-7.284 2.04-4.163.006-5.945-5.047-10.017-4.08ZM32.5 37h-18a1.5 1.5 0 0 0-1.5 1.5v.625c0 .483.392.875.875.875s.875.392.875.875v1.25a.875.875 0 0 1-.875.875.875.875 0 0 0-.875.875v.625a1.5 1.5 0 0 0 1.5 1.5h18a1.5 1.5 0 0 0 1.5-1.5v-.625a.875.875 0 0 0-.875-.875.875.875 0 0 1-.875-.875v-1.25c0-.483.392-.875.875-.875a.875.875 0 0 0 .875-.875V38.5a1.5 1.5 0 0 0-1.5-1.5ZM31.83 48H16c-.552 0-.987.45-.855.986.419 1.703 2.047 5.014 8.381 5.014 6.182 0 8.38-3.154 9.121-4.888.242-.565-.203-1.112-.817-1.112Z"/><path d="M14.125 36c-.928 0-1.8-.433-2.39-1.148C6.448 28.456 0 23.7 0 14.387 0 6.304 5.687 0 12.925 0c4.089 0 8.014 2.119 10.575 5.44C26.061 2.12 29.986 0 34.075 0 41.313 0 47 6.304 47 14.387c0 9.393-5.74 14.15-11.753 20.63a3.053 3.053 0 0 1-2.233.983h-18.89Z"/></mask><path fill="#ff79b0" d="M6.48 14.043c-2.417.574-5.464 3.572-5.464 3.572-.16 2.13.921 3.219 1.366 5.102l2.732 4.082 6.993 7.716a3 3 0 0 0 2.223.985h19.51c.106 0 .215 0 .313-.041.377-.157 1.528-.904 4.347-4.459 3.642-4.592 4.5-5 6.5-9l1.5-6s-3.472-3.307-6.33-2.977c-3.042.351-3.43 4.17-6.373 5.102-3.826 1.21-6.05-2.331-10.017-2.041-2.926.214-4.352 2.037-7.284 2.04-4.163.006-5.945-5.047-10.017-4.08ZM32.5 37h-18a1.5 1.5 0 0 0-1.5 1.5v.625c0 .483.392.875.875.875s.875.392.875.875v1.25a.875.875 0 0 1-.875.875.875.875 0 0 0-.875.875v.625a1.5 1.5 0 0 0 1.5 1.5h18a1.5 1.5 0 0 0 1.5-1.5v-.625a.875.875 0 0 0-.875-.875.875.875 0 0 1-.875-.875v-1.25c0-.483.392-.875.875-.875a.875.875 0 0 0 .875-.875V38.5a1.5 1.5 0 0 0-1.5-1.5ZM31.83 48H16c-.552 0-.987.45-.855.986.419 1.703 2.047 5.014 8.381 5.014 6.182 0 8.38-3.154 9.121-4.888.242-.565-.203-1.112-.817-1.112Z"/><path fill="#ff79b0" d="m1.016 17.615-.702-.713-.267.264-.028.374.997.075Zm5.463-3.572.231.973-.23-.973Zm10.017 4.082-.002-1 .002 1Zm7.284-2.041-.073-.997.073.997Zm10.017 2.04-.302-.952.302.953Zm6.374-5.101-.115-.994.115.994ZM46.5 16l.97.242.141-.564-.421-.402-.69.724ZM45 22l.894.447.05-.098.026-.107L45 22ZM5.114 26.799l-.832.556.041.061.05.055.74-.672Zm-2.732-4.082-.974.23.042.176.1.15.832-.556Zm30.265 26.395-.92-.393.92.393Zm-17.502-.126-.971.239.97-.24ZM23.5 5.44l-.792.61.792 1.028.792-1.028-.792-.61Zm11.747 29.576-.733-.68.733.68Zm-1.093.442.384.923-.384-.923ZM1.016 17.615l.701.713v-.001c.002 0 .003-.003.006-.005l.022-.021.093-.089a22.567 22.567 0 0 1 1.615-1.377c1.052-.812 2.273-1.585 3.257-1.819l-.462-1.946c-1.432.34-2.942 1.352-4.018 2.182a24.518 24.518 0 0 0-1.874 1.61l-.03.028-.008.008a.117.117 0 0 1-.002.003H.315l.7.714Zm5.694-2.599c1.53-.363 2.64.343 4.131 1.498 1.394 1.08 3.165 2.614 5.656 2.61l-.003-2c-1.671.003-2.873-.987-4.428-2.191-1.458-1.13-3.275-2.466-5.818-1.863l.462 1.946Zm9.787 4.109c1.692-.002 2.947-.539 4.049-1.028 1.11-.492 2.044-.923 3.307-1.016l-.146-1.994c-1.663.121-2.905.709-3.972 1.182-1.076.478-2 .854-3.24.856l.002 2Zm7.356-2.044c1.677-.122 2.972.548 4.573 1.279 1.556.71 3.375 1.445 5.672.718l-.603-1.906c-1.53.483-2.735.054-4.239-.632-1.458-.665-3.258-1.62-5.549-1.453l.146 1.994Zm10.245 1.997c1.833-.58 2.854-2.073 3.645-3.118.862-1.136 1.49-1.822 2.542-1.944l-.229-1.987c-1.99.23-3.077 1.629-3.906 2.723-.899 1.186-1.544 2.068-2.655 2.42l.603 1.906Zm6.187-5.062c1.06-.122 2.384.445 3.582 1.213a14.941 14.941 0 0 1 1.943 1.495s.001 0 0 0L46.5 16a206.318 206.318 0 0 0 .688-.726l-.003-.003-.01-.01a6.587 6.587 0 0 0-.164-.148 16.937 16.937 0 0 0-2.065-1.567c-1.252-.803-3.092-1.724-4.89-1.517l.23 1.987Zm5.245 1.742-1.5 6 1.94.485 1.5-6-1.94-.485Zm-1.424 5.795c-1.939 3.876-2.672 4.14-6.39 8.826l1.567 1.242c3.568-4.497 4.55-5.05 6.611-9.174l-1.788-.894Zm-6.39 8.826c-1.392 1.755-2.352 2.792-2.993 3.399-.653.618-.93.748-.954.758l.769 1.846c.353-.146.838-.468 1.56-1.152.733-.695 1.759-1.81 3.185-3.609l-1.566-1.242ZM33.84 34.5H14.33v2h19.51v-2Zm-20.991-.657-6.994-7.716-1.481 1.344 6.993 7.715 1.482-1.343Zm-6.903-7.6L3.213 22.16 1.55 23.273l2.731 4.082 1.663-1.112Zm-2.59-3.755c-.244-1.036-.689-1.93-.952-2.597-.276-.698-.454-1.343-.39-2.202L.019 17.54c-.095 1.272.188 2.236.524 3.086.348.88.665 1.473.865 2.32l1.947-.459ZM14.5 38h18v-2h-18v2Zm18.5.5v.625h2V38.5h-2Zm-1.75 2.375v1.25h2v-1.25h-2Zm1.75 3v.625h2v-.625h-2ZM32.5 45h-18v2h18v-2ZM14 44.5v-.625h-2v.625h2Zm1.75-2.375v-1.25h-2v1.25h2Zm-1.75-3V38.5h-2v.625h2ZM13.875 39c.069 0 .125.056.125.125h-2C12 40.16 12.84 41 13.875 41v-2Zm1.875 1.875c0-1.035-.84-1.875-1.875-1.875v2a.125.125 0 0 1-.125-.125h2ZM13.875 44c1.036 0 1.875-.84 1.875-1.875h-2c0-.069.056-.125.125-.125v2Zm.125-.125a.125.125 0 0 1-.125.125v-2C12.839 42 12 42.84 12 43.875h2ZM14.5 45a.5.5 0 0 1-.5-.5h-2a2.5 2.5 0 0 0 2.5 2.5v-2Zm18.5-.5a.5.5 0 0 1-.5.5v2a2.5 2.5 0 0 0 2.5-2.5h-2Zm.125-.5a.125.125 0 0 1-.125-.125h2C35 42.84 34.16 42 33.125 42v2Zm-1.875-1.875c0 1.035.84 1.875 1.875 1.875v-2c.069 0 .125.056.125.125h-2ZM33.125 39c-1.035 0-1.875.84-1.875 1.875h2a.125.125 0 0 1-.125.125v-2Zm-.125.125c0-.069.056-.125.125-.125v2C34.16 41 35 40.16 35 39.125h-2ZM32.5 38a.5.5 0 0 1 .5.5h2a2.5 2.5 0 0 0-2.5-2.5v2Zm-18-2a2.5 2.5 0 0 0-2.5 2.5h2a.5.5 0 0 1 .5-.5v-2ZM16 49h15.83v-2H16v2Zm15.728-.281a6.337 6.337 0 0 1-2.18 2.672c-1.224.87-3.11 1.609-6.022 1.609v2c3.27 0 5.574-.837 7.18-1.978a8.338 8.338 0 0 0 2.86-3.517l-1.838-.786ZM23.526 53c-2.987 0-4.735-.777-5.77-1.637a4.905 4.905 0 0 1-1.64-2.616l-1.942.478c.244.993.843 2.46 2.304 3.675 1.468 1.222 3.702 2.1 7.048 2.1v-2Zm8.304-4c.01 0-.026.002-.066-.05a.251.251 0 0 1-.036-.231l1.839.786a1.75 1.75 0 0 0-.212-1.767A1.908 1.908 0 0 0 31.83 47v2ZM16 47c-1.053 0-2.147.921-1.826 2.225l1.942-.478a.235.235 0 0 1-.003.112.244.244 0 0 1-.053.101c-.038.042-.067.04-.06.04v-2Zm-3.495-12.785c-1.34-1.622-2.758-3.144-4.092-4.62-1.345-1.487-2.615-2.938-3.717-4.466C2.51 22.095 1 18.779 1 14.387h-2c0 4.922 1.715 8.64 4.074 11.911 1.17 1.624 2.504 3.144 3.855 4.638 1.361 1.506 2.732 2.976 4.034 4.553l1.542-1.274ZM1 14.387C1 6.754 6.336 1 12.925 1v-2C5.038-1-1 5.854-1 14.387h2ZM12.925 1c3.745 0 7.389 1.947 9.783 5.051l1.584-1.22C21.563 1.29 17.358-1 12.925-1v2Zm11.367 5.051C26.686 2.947 30.33 1 34.075 1v-2c-4.433 0-8.638 2.291-11.367 5.83l1.584 1.221ZM34.075 1C40.664 1 46 6.754 46 14.387h2C48 5.854 41.962-1 34.075-1v2ZM46 14.387c0 8.91-5.358 13.346-11.486 19.95l1.466 1.36C41.878 29.341 48 24.262 48 14.387h-2ZM33.014 35h-18.89v2h18.89v-2Zm-22.05.489A4.113 4.113 0 0 0 14.123 37v-2a2.114 2.114 0 0 1-1.62-.785l-1.54 1.274Zm3.366-.989a2 2 0 0 1-1.482-.657l-1.482 1.343A4 4 0 0 0 14.33 36.5v-2Zm20.184-.163a2.052 2.052 0 0 1-1.5.663v2a4.053 4.053 0 0 0 2.966-1.303l-1.466-1.36Zm-.745.199a.48.48 0 0 1 .134-.036h-.064v2c.068 0 .384.013.699-.118l-.769-1.846Z" mask="url(#a)"/></svg>