<?xml version="1.0" encoding="iso-8859-1"?>
<!-- Uploaded to: SVG Repo, www.svgrepo.com, Generator: SVG Repo Mixer Tools -->
<svg fill="#000000" height="800px" width="800px" version="1.1" id="Layer_1" xmlns="http://www.w3.org/2000/svg" xmlns:xlink="http://www.w3.org/1999/xlink" 
	 viewBox="0 0 512 512" xml:space="preserve">
<g>
	<g>
		<path d="M386.643,52.337C348.873,16.293,299.188-2.218,246.992,0.212C148.961,4.771,68.125,88.395,66.799,186.623
			c-0.728,55.19,22.609,107.814,64.032,144.379c4.451,3.93,7.927,8.74,10.293,14.043h98.184v-63.89
			c-6.769-5.592-13.316-10.933-19.478-15.93c-45.999-37.293-69.891-58.168-69.891-90.504c0-31.924,23.293-56.934,53.031-56.934
			c16.13,0,29.174,6.653,39.88,20.342l13.152,16.826l13.152-16.826c10.706-13.69,23.75-20.342,39.88-20.342
			c29.739,0,53.031,25.011,53.031,56.934c0,32.337-23.891,53.212-69.674,90.33c-6.291,5.099-12.896,10.486-19.695,16.103v63.89
			h98.113c2.31-5.236,5.699-9.942,10.027-13.745c40.913-35.94,64.38-87.727,64.38-142.08
			C445.219,137.009,424.415,88.395,386.643,52.337z"/>
	</g>
</g>
<g>
	<g>
		<path d="M144.7,378.436v16.695c0,21.923,14.246,40.397,33.897,47.168c1.765,16.447,8.656,32.082,19.928,44.391
			C213.253,502.771,234.199,512,256.004,512c21.804,0,42.749-9.228,57.478-25.309c11.272-12.308,18.162-27.944,19.928-44.391
			c19.652-6.771,33.897-25.245,33.897-47.168v-16.695H144.7z"/>
	</g>
</g>
</svg>