<svg xmlns="http://www.w3.org/2000/svg" viewBox="0 0 512 512"><path d="M386.643 52.337C348.873 16.293 299.188-2.218 246.992.212 148.961 4.771 68.125 88.395 66.799 186.623c-.728 55.19 22.609 107.814 64.032 144.379a40.995 40.995 0 0110.293 14.043h98.184v-63.89a2764.352 2764.352 0 00-19.478-15.93c-45.999-37.293-69.891-58.168-69.891-90.504 0-31.924 23.293-56.934 53.031-56.934 16.13 0 29.174 6.653 39.88 20.342l13.152 16.826 13.152-16.826c10.706-13.69 23.75-20.342 39.88-20.342 29.739 0 53.031 25.011 53.031 56.934 0 32.337-23.891 53.212-69.674 90.33a2713.492 2713.492 0 00-19.695 16.103v63.89h98.113c2.31-5.236 5.699-9.942 10.027-13.745 40.913-35.94 64.38-87.727 64.38-142.08.003-52.21-20.801-100.824-58.573-136.882zM144.7 378.436v16.695c0 21.923 14.246 40.397 33.897 47.168 1.765 16.447 8.656 32.082 19.928 44.391 14.728 16.081 35.674 25.31 57.479 25.31 21.804 0 42.749-9.228 57.478-25.309 11.272-12.308 18.162-27.944 19.928-44.391 19.652-6.771 33.897-25.245 33.897-47.168v-16.695H144.7z"/></svg>