<svg xmlns="http://www.w3.org/2000/svg" width="179" height="54" fill="none"><mask id="a" fill="#fff"><path d="M6.48 14.04c-2.42.58-5.46 3.57-5.46 3.57-.16 2.14.92 3.22 1.36 5.1l2.73 4.09 7 7.71a3 3 0 0 0 2.22.99h19.5c.12 0 .22 0 .32-.04.38-.16 1.53-.9 4.35-4.46 3.64-4.6 4.5-5 6.5-9l1.5-6s-3.47-3.3-6.33-2.98c-3.04.35-3.43 4.17-6.37 5.1-3.83 1.22-6.05-2.33-10.02-2.04-2.93.22-4.35 2.04-7.28 2.04-4.17.01-5.95-5.04-10.02-4.08ZM32.5 37h-18c-.83 0-1.5.67-1.5 1.5v.63c0 .48.4.87.88.87s.87.4.87.88v1.24c0 .49-.4.88-.88.88s-.87.4-.87.88v.62c0 .83.67 1.5 1.5 1.5h18c.83 0 1.5-.67 1.5-1.5v-.63c0-.48-.4-.87-.88-.87a.88.88 0 0 1-.87-.88v-1.24c0-.49.4-.88.88-.88s.87-.4.87-.88v-.62c0-.83-.67-1.5-1.5-1.5ZM31.83 48H16c-.55 0-.99.45-.86.99.42 1.7 2.05 5.01 8.39 5.01 6.18 0 8.38-3.15 9.12-4.89.24-.56-.2-1.11-.82-1.11Z"/><path d="M14.12 36c-.92 0-1.8-.43-2.39-1.15C6.45 28.45 0 23.7 0 14.4 0 6.3 5.69 0 12.93 0c4.08 0 8 2.12 10.57 5.44A13.59 13.59 0 0 1 34.08 0C41.3 0 47 6.3 47 14.39c0 9.39-5.74 14.15-11.75 20.63-.58.62-1.39.98-2.24.98H14.12Z"/></mask><path fill="#ff79b0" d="M6.48 14.04c-2.42.58-5.46 3.57-5.46 3.57-.16 2.14.92 3.22 1.36 5.1l2.73 4.09 7 7.71a3 3 0 0 0 2.22.99h19.5c.12 0 .22 0 .32-.04.38-.16 1.53-.9 4.35-4.46 3.64-4.6 4.5-5 6.5-9l1.5-6s-3.47-3.3-6.33-2.98c-3.04.35-3.43 4.17-6.37 5.1-3.83 1.22-6.05-2.33-10.02-2.04-2.93.22-4.35 2.04-7.28 2.04-4.17.01-5.95-5.04-10.02-4.08ZM32.5 37h-18c-.83 0-1.5.67-1.5 1.5v.63c0 .48.4.87.88.87s.87.4.87.88v1.24c0 .49-.4.88-.88.88s-.87.4-.87.88v.62c0 .83.67 1.5 1.5 1.5h18c.83 0 1.5-.67 1.5-1.5v-.63c0-.48-.4-.87-.88-.87a.88.88 0 0 1-.87-.88v-1.24c0-.49.4-.88.88-.88s.87-.4.87-.88v-.62c0-.83-.67-1.5-1.5-1.5ZM31.83 48H16c-.55 0-.99.45-.86.99.42 1.7 2.05 5.01 8.39 5.01 6.18 0 8.38-3.15 9.12-4.89.24-.56-.2-1.11-.82-1.11Z"/><path fill="#ff79b0" d="m1.02 17.61-.7-.7-.27.26-.03.37 1 .07Zm5.46-3.57.23.98-.23-.98Zm10.02 4.08v-1 1Zm7.28-2.04-.07-1 .07 1Zm10.02 2.04-.3-.95.3.95Zm6.37-5.1-.11-1 .11 1ZM46.5 16l.97.24.14-.56-.42-.4-.69.72ZM45 22l.9.45.04-.1.03-.1L45 22ZM5.11 26.8l-.83.56.04.06.05.05.74-.67Zm-2.73-4.08-.97.23.04.17.1.15.83-.55Zm30.27 26.4-.92-.4.92.4Zm-17.5-.13-.98.23.97-.23ZM23.5 5.44l-.8.61.8 1.03.8-1.03-.8-.6Zm11.75 29.58-.74-.68.74.68Zm-1.1.44.39.92-.39-.92ZM1.02 17.6l.7.72a2.37 2.37 0 0 1 .12-.12 18.87 18.87 0 0 1 1.61-1.37 9.87 9.87 0 0 1 3.26-1.82l-.46-1.95a11.7 11.7 0 0 0-4.02 2.18 24.52 24.52 0 0 0-1.87 1.61l-.03.03H.32v.01l.7.71Zm5.69-2.6c1.53-.36 2.64.35 4.13 1.5 1.4 1.08 3.17 2.62 5.66 2.61v-2c-1.68 0-2.88-.98-4.43-2.19-1.46-1.13-3.28-2.46-5.82-1.86l.46 1.95Zm9.79 4.11c1.69 0 2.94-.53 4.05-1.02 1.1-.5 2.04-.93 3.3-1.02l-.14-2c-1.67.13-2.9.72-3.98 1.19-1.07.48-2 .85-3.24.85v2Zm7.35-2.04c1.68-.12 2.97.55 4.58 1.28 1.55.7 3.37 1.45 5.67.72l-.6-1.9c-1.53.48-2.74.05-4.24-.64-1.46-.67-3.26-1.62-5.55-1.45l.14 2Zm10.25 2c1.83-.58 2.85-2.08 3.64-3.12.86-1.14 1.5-1.82 2.55-1.94l-.23-2c-2 .24-3.08 1.64-3.91 2.73-.9 1.19-1.54 2.07-2.66 2.42l.6 1.9Zm6.19-5.06c1.05-.13 2.38.44 3.58 1.2a14.94 14.94 0 0 1 1.94 1.5 256.18 256.18 0 0 1 1.37-1.45 6.59 6.59 0 0 0-.63-.55c-.4-.33-.95-.75-1.6-1.17-1.26-.8-3.1-1.73-4.9-1.52l.24 1.99Zm5.24 1.74-1.5 6 1.94.48 1.5-6-1.94-.48Zm-1.42 5.8c-1.94 3.87-2.68 4.13-6.4 8.82l1.57 1.24c3.57-4.5 4.55-5.05 6.61-9.17l-1.78-.9Zm-6.4 8.82a33.33 33.33 0 0 1-2.99 3.4 4.2 4.2 0 0 1-.95.76l.77 1.84a5.6 5.6 0 0 0 1.56-1.15c.73-.7 1.76-1.81 3.18-3.6l-1.56-1.25Zm-3.87 4.12H14.33v2h19.5v-2Zm-21-.66-6.99-7.71-1.48 1.34 7 7.72 1.48-1.35Zm-6.9-7.6-2.73-4.08-1.66 1.11 2.73 4.09 1.66-1.12ZM3.36 22.5c-.25-1.04-.7-1.93-.96-2.6a4.66 4.66 0 0 1-.39-2.2l-2-.15c-.09 1.27.2 2.24.53 3.09.35.88.67 1.47.87 2.32l1.95-.46ZM14.5 38h18v-2h-18v2Zm18.5.5v.63h2v-.63h-2Zm-1.75 2.38v1.24h2v-1.24h-2Zm1.75 3v.62h2v-.63h-2ZM32.5 45h-18v2h18v-2ZM14 44.5v-.63h-2v.63h2Zm1.75-2.38v-1.24h-2v1.24h2Zm-1.75-3v-.62h-2v.63h2Zm-.13-.12c.07 0 .13.06.13.13h-2c0 1.03.84 1.87 1.88 1.87v-2Zm1.88 1.88c0-1.04-.84-1.88-1.88-1.88v2a.13.13 0 0 1-.12-.13h2ZM13.87 44c1.04 0 1.88-.84 1.88-1.88h-2c0-.06.06-.12.13-.12v2Zm.13-.13c0 .07-.06.13-.13.13v-2c-1.03 0-1.87.84-1.87 1.88h2Zm.5 1.13a.5.5 0 0 1-.5-.5h-2a2.5 2.5 0 0 0 2.5 2.5v-2Zm18.5-.5a.5.5 0 0 1-.5.5v2a2.5 2.5 0 0 0 2.5-2.5h-2Zm.13-.5a.13.13 0 0 1-.13-.13h2c0-1.03-.84-1.87-1.88-1.87v2Zm-1.88-1.88c0 1.04.84 1.88 1.88 1.88v-2c.06 0 .12.06.12.13h-2ZM33.13 39c-1.04 0-1.88.84-1.88 1.88h2c0 .06-.06.12-.13.12v-2Zm-.13.13c0-.07.06-.13.13-.13v2c1.03 0 1.87-.84 1.87-1.88h-2ZM32.5 38c.28 0 .5.22.5.5h2a2.5 2.5 0 0 0-2.5-2.5v2Zm-18-2a2.5 2.5 0 0 0-2.5 2.5h2c0-.28.22-.5.5-.5v-2ZM16 49h15.83v-2H16v2Zm15.73-.28c-.32.74-.95 1.8-2.18 2.67-1.23.87-3.11 1.61-6.02 1.61v2c3.27 0 5.57-.84 7.18-1.98a8.34 8.34 0 0 0 2.86-3.52l-1.84-.78ZM23.53 53c-3 0-4.74-.78-5.77-1.64a4.9 4.9 0 0 1-1.64-2.61l-1.95.47a6.9 6.9 0 0 0 2.3 3.68c1.48 1.22 3.71 2.1 7.06 2.1v-2Zm8.3-4c.01 0-.03 0-.07-.05a.25.25 0 0 1-.03-.23l1.84.78c.26-.62.15-1.28-.21-1.76a1.9 1.9 0 0 0-1.53-.74v2ZM16 47c-1.05 0-2.15.92-1.83 2.22l1.95-.47v.1a.24.24 0 0 1-.06.11c-.04.04-.07.04-.06.04v-2Zm-3.5-12.78c-1.33-1.63-2.75-3.15-4.09-4.63a52.9 52.9 0 0 1-3.71-4.46C2.5 22.09 1 18.78 1 14.39h-2c0 4.92 1.72 8.64 4.07 11.9a54.8 54.8 0 0 0 3.86 4.65c1.36 1.5 2.73 2.97 4.03 4.55l1.54-1.27ZM1 14.39C1 6.75 6.34 1 12.93 1v-2C5.03-1-1 5.85-1 14.39h2ZM12.93 1a12.6 12.6 0 0 1 9.78 5.05l1.58-1.22C21.56 1.29 17.36-1 12.93-1v2Zm11.36 5.05A12.6 12.6 0 0 1 34.08 1v-2c-4.44 0-8.64 2.3-11.37 5.83l1.58 1.22ZM34.08 1C40.66 1 46 6.75 46 14.39h2C48 5.85 41.96-1 34.08-1v2ZM46 14.39c0 8.9-5.36 13.34-11.49 19.95l1.47 1.36C41.88 29.34 48 24.26 48 14.39h-2ZM33.01 35H14.12v2h18.9v-2Zm-22.05.49A4.11 4.11 0 0 0 14.12 37v-2c-.6 0-1.2-.29-1.62-.78l-1.54 1.27Zm3.37-.99a2 2 0 0 1-1.48-.66l-1.48 1.35a4 4 0 0 0 2.96 1.31v-2Zm20.18-.16c-.39.42-.93.66-1.5.66v2c1.14 0 2.2-.48 2.97-1.3l-1.47-1.36Zm-.74.2a.48.48 0 0 1 .13-.04h-.06v2c.07 0 .38.01.7-.12l-.77-1.84Z" mask="url(#a)"/><path fill="#ff79b0" d="M55.8 38.34v-21.6c0-.6.14-1.06.43-1.4.31-.36.71-.54 1.19-.54h6.01c3.82 0 6.71.96 8.68 2.88 1.99 1.92 2.99 4.94 2.99 9.07C75.1 35.58 71.33 40 63.8 40h-6.16c-1.23 0-1.84-.55-1.84-1.66Zm6.91-16.7V32.4c0 .5.04.83.11.98.07.12.29.18.65.18 1.32 0 2.31-.5 2.99-1.48.7-.98 1.04-2.62 1.04-4.9 0-2.3-.36-3.8-1.08-4.5-.7-.7-1.81-1.04-3.35-1.04h-.36ZM80.07 26.93c-.67-1.2-1-2.17-1-2.91 0-.77.2-1.26.6-1.48 1.37-.6 3.25-.9 5.62-.9 2.4 0 4.1.56 5.08 1.7.98 1.1 1.47 2.74 1.47 4.92v5.7h1.23c.4 0 .72.23.93.71.24.48.36 1.14.36 1.98 0 .84-.21 1.67-.64 2.49-.41.81-.98 1.22-1.7 1.22-1.3 0-2.34-.35-3.13-1.04a2.9 2.9 0 0 1-.83-1.05c-1.1 1.4-2.82 2.09-5.14 2.09a5.9 5.9 0 0 1-4.43-1.87 6.17 6.17 0 0 1-1.8-4.43c0-3.91 2.34-5.87 7.02-5.87h1.98v-.36c0-.62-.11-1.02-.33-1.19-.19-.19-.66-.28-1.4-.28-.91 0-2.2.19-3.89.57Zm2.88 6.63c0 .52.15.93.43 1.22.3.26.65.4 1.08.4.46 0 .87-.18 1.23-.54v-2.78h-1.01c-1.15 0-1.73.57-1.73 1.7ZM104.68 39.78c0 .3-1 .44-3.02.44-2.4-.1-3.6-.26-3.6-.47V27h-1.84c-.48 0-.72-.82-.72-2.48 0-.43.04-.96.1-1.58.1-.63.29-.94.55-.94h1.9v-3.17c0-.48 1.02-.72 3.03-.72 2.04 0 3.06.2 3.06.58v2.3l.04 1.01h3.06c.4 0 .6.84.6 2.52 0 1.68-.2 2.52-.6 2.52h-2.56v12.74ZM123.26 39.03c-1.5.89-3.45 1.33-5.83 1.33s-4.38-.8-6.01-2.41c-1.63-1.63-2.45-3.88-2.45-6.73 0-2.88.78-5.2 2.34-6.95a7.71 7.71 0 0 1 5.98-2.63c2.4 0 4.24.61 5.54 1.84a5.86 5.86 0 0 1 1.98 4.46c0 3.89-2.23 5.83-6.7 5.83h-2.48c0 .72.2 1.23.58 1.51.4.27 1 .4 1.76.4 1.68 0 3.28-.38 4.79-1.15.02-.03.13.14.32.5.58 1.03.87 1.91.87 2.63 0 .7-.23 1.15-.69 1.37Zm-4.5-10.4c0-1.01-.49-1.52-1.47-1.52-.46 0-.86.15-1.2.43-.3.27-.46.66-.46 1.2v1.1h1.95c.79 0 1.18-.4 1.18-1.22ZM128.57 26.79h-1.77c-.36 0-.54-.8-.54-2.38 0-1.6.18-2.41.54-2.41h1.77v-.8c0-2.54.53-4.29 1.58-5.25 1.08-.98 2.58-1.47 4.5-1.47s3.61.34 5.08 1.04c.19.07.28.34.28.8 0 .42-.2 1.13-.6 2.12-.41.98-.76 1.54-1.05 1.69a4.74 4.74 0 0 0-2.52-.76c-.94 0-1.4.63-1.4 1.87V22h2.98c.44 0 .65.77.65 2.3 0 1.68-.28 2.52-.83 2.52h-2.3v12.75c0 .29-1.07.43-3.2.43-2.12 0-3.17-.14-3.17-.43V26.79ZM147.22 39.71c0 .22-1.23.33-3.68.33-1.92-.03-2.88-.12-2.88-.3v-24.5c0-.37 1.17-.55 3.5-.55 2.03.07 3.06.2 3.06.36v24.66ZM157.06 39.78c0 .2-1.1.3-3.31.3-2.19 0-3.28-.1-3.28-.26V22.14c0-.16 1.1-.25 3.28-.25 2.2 0 3.31.07 3.31.22v17.67Zm0-19.8c0 .17-1.1.26-3.31.26-2.19 0-3.28-.08-3.28-.22v-5.18c0-.24 1.1-.36 3.28-.36 2.2 0 3.31.07 3.31.21V20ZM171.12 22.1c.1-.18.7-.28 1.8-.28 3.6 0 5.35.13 5.25.4l-4.4 9.1 4.44 8.28c0 .15-.72.27-2.16.36-1.44.1-2.46.15-3.06.15-1.52 0-2.32-.16-2.42-.47l-1.94-6.01-2.23 6.26c-.05.17-.73.25-2.05.25-1.32 0-2.5-.04-3.53-.14-1.03-.1-1.5-.22-1.4-.36l4.06-8.28c-2.83-5.93-4.24-8.9-4.24-8.93 0-.14.35-.27 1.07-.4.75-.11 1.58-.17 2.49-.17.94 0 1.82.04 2.66.14.84.07 1.31.18 1.4.32l1.91 5.84 2.34-6.05Z"/></svg>