<svg xmlns="http://www.w3.org/2000/svg" class="transition duration-300 ease-in-out delay-150" viewBox="0 0 1440 390"><path fill="#f78da7" fill-opacity=".265" stroke-width="0" d="M0 400V80c85.81-4.864 171.62-9.728 262-10 90.38-.272 185.328 4.049 254 4 68.672-.049 111.067-4.467 192 1s200.405 20.818 290 28c89.595 7.182 149.313 6.195 218 1 68.687-5.195 146.344-14.597 224-24v320z" class="transition-all duration-300 ease-in-out delay-150 path-0"/><path fill="#f78da7" fill-opacity=".4" stroke-width="0" d="M0 400V160c87.9 9.946 175.8 19.892 264 22 88.2 2.108 176.7-3.623 252-7 75.3-3.377 137.4-4.4 201-11 63.6-6.6 128.7-18.777 202-21 73.3-2.223 154.8 5.508 243 10 88.2 4.492 183.1 5.746 278 7v240z" class="transition-all duration-300 ease-in-out delay-150 path-1"/><path fill="#f78da7" fill-opacity=".53" stroke-width="0" d="M0 400V240c66.78 6.428 133.559 12.856 211 5s165.544-29.997 247-35c81.456-5.003 156.267 7.133 237 23s167.39 35.464 259 31c91.61-4.464 188.174-32.99 270-41 81.826-8.01 148.913 4.495 216 17v160z" class="transition-all duration-300 ease-in-out delay-150 path-2"/><path fill="#f78da7" stroke-width="0" d="M0 400v-80c74.985-16.29 149.97-32.58 226-29 76.03 3.58 153.108 27.028 232 27 78.892-.028 159.6-23.533 237-27 77.4-3.467 151.492 13.105 229 25 77.508 11.895 158.43 19.113 245 19 86.57-.113 178.785-7.556 271-15v80z" class="transition-all duration-300 ease-in-out delay-150 path-3"/></svg>