<svg xmlns="http://www.w3.org/2000/svg" width="214" height="58" fill="none"><path fill="#FF79B0" d="M33.04 17.21c0 7.03-5.62 12.72-12.55 12.72-6.93 0-12.55-5.7-12.55-12.72 0-7.02 5.62-12.71 12.55-12.71 6.93 0 12.55 5.69 12.55 12.71Z"/><path fill="#FF79B0" d="M53.06 17.16c0 7.06-5.64 12.77-12.6 12.77s-12.6-5.71-12.6-12.77c0-7.05 5.64-12.77 12.6-12.77s12.6 5.72 12.6 12.77Z"/><path fill="#FF79B0" d="M52.21 21.66c-.63 3.74-7.6 11.46-21.66 24.22-13.5-12.53-20.18-19.84-21.81-24.22l21.69-12.2 21.78 12.2Z"/><path fill="#FF79B0" d="M15.24 41.54c0-2.4 1.95-4.33 4.34-4.33H41.5a4.34 4.34 0 0 1 0 8.67H19.6a4.34 4.34 0 0 1-4.35-4.34ZM18.8 50.33c0-1.47 1.2-2.67 2.67-2.67H39.6a2.67 2.67 0 0 1 0 5.34H21.47a2.67 2.67 0 0 1-2.67-2.67ZM56.8 40.34v-21.6c0-.6.14-1.06.43-1.4.31-.36.71-.54 1.19-.54h6.01c3.82 0 6.71.96 8.68 2.88 1.99 1.92 2.99 4.94 2.99 9.07C76.1 37.58 72.33 42 64.8 42h-6.16c-1.23 0-1.84-.55-1.84-1.66Zm6.91-16.7V34.4c0 .5.04.83.11.98.07.12.29.18.65.18 1.32 0 2.31-.5 2.99-1.48.7-.98 1.04-2.62 1.04-4.9 0-2.3-.36-3.8-1.08-4.5-.7-.7-1.81-1.04-3.35-1.04h-.36Zm17.36 5.3c-.67-1.2-1-2.18-1-2.92 0-.77.2-1.26.6-1.48 1.37-.6 3.25-.9 5.62-.9 2.4 0 4.1.56 5.08 1.7.98 1.1 1.47 2.74 1.47 4.92v5.7h1.23c.4 0 .72.23.93.71.24.48.36 1.14.36 1.98 0 .84-.21 1.67-.64 2.49-.41.81-.98 1.22-1.7 1.22-1.3 0-2.34-.35-3.13-1.04a2.9 2.9 0 0 1-.83-1.05c-1.1 1.4-2.82 2.09-5.14 2.09a5.9 5.9 0 0 1-4.43-1.87 6.17 6.17 0 0 1-1.8-4.43c0-3.91 2.34-5.87 7.02-5.87h1.98v-.36c0-.62-.11-1.02-.33-1.19-.19-.19-.66-.28-1.4-.28-.91 0-2.2.19-3.89.57Zm2.88 6.62c0 .52.15.93.43 1.22.3.26.65.4 1.08.4.46 0 .87-.18 1.23-.54v-2.78h-1.01c-1.15 0-1.73.57-1.73 1.7Zm21.73 6.22c0 .3-1 .44-3.02.44-2.4-.1-3.6-.26-3.6-.47V29h-1.84c-.48 0-.72-.82-.72-2.48 0-.43.04-.96.1-1.58.1-.63.29-.94.55-.94h1.9v-3.17c0-.48 1.02-.72 3.03-.72 2.04 0 3.06.2 3.06.58v2.3l.04 1.01h3.06c.4 0 .6.84.6 2.52 0 1.68-.2 2.52-.6 2.52h-2.56v12.74Zm18.58-.75c-1.5.89-3.45 1.33-5.83 1.33s-4.38-.8-6.01-2.41c-1.63-1.63-2.45-3.88-2.45-6.73 0-2.88.78-5.2 2.34-6.95a7.71 7.71 0 0 1 5.98-2.63c2.4 0 4.24.61 5.54 1.84a5.86 5.86 0 0 1 1.98 4.46c0 3.89-2.23 5.83-6.7 5.83h-2.48c0 .72.2 1.23.58 1.51.4.27 1 .4 1.76.4 1.68 0 3.28-.38 4.79-1.15.02-.03.13.14.32.5.58 1.03.87 1.91.87 2.63 0 .7-.23 1.15-.69 1.37Zm-4.5-10.4c0-1.01-.49-1.52-1.47-1.52-.46 0-.86.15-1.2.43-.3.27-.46.66-.46 1.2v1.1h1.95c.79 0 1.18-.4 1.18-1.22Zm9.8-1.84h-1.76c-.36 0-.54-.8-.54-2.38 0-1.6.18-2.41.54-2.41h1.77v-.8c0-2.54.53-4.29 1.58-5.25 1.08-.98 2.58-1.47 4.5-1.47s3.61.34 5.08 1.04c.19.07.28.34.28.8 0 .42-.2 1.13-.6 2.12-.41.98-.76 1.54-1.05 1.69a4.74 4.74 0 0 0-2.52-.76c-.94 0-1.4.63-1.4 1.87V24h2.98c.44 0 .65.77.65 2.3 0 1.68-.28 2.52-.83 2.52h-2.3v12.75c0 .29-1.07.43-3.2.43-2.12 0-3.17-.14-3.17-.43V28.79Zm18.66 12.92c0 .22-1.23.33-3.68.33-1.92-.03-2.88-.12-2.88-.3v-24.5c0-.37 1.17-.55 3.5-.55 2.03.07 3.06.2 3.06.36v24.66Zm9.84.07c0 .2-1.1.3-3.31.3-2.19 0-3.28-.1-3.28-.26V24.14c0-.16 1.1-.25 3.28-.25 2.2 0 3.31.07 3.31.22v17.67Zm0-19.8c0 .17-1.1.26-3.31.26-2.19 0-3.28-.08-3.28-.22v-5.18c0-.24 1.1-.36 3.28-.36 2.2 0 3.31.07 3.31.21V22Zm14.06 2.13c.1-.2.7-.29 1.8-.29 3.6 0 5.35.13 5.25.4l-4.4 9.1 4.44 8.28c0 .15-.72.27-2.16.36-1.44.1-2.46.15-3.06.15-1.52 0-2.32-.16-2.42-.47l-1.94-6.01-2.23 6.26c-.05.17-.73.25-2.05.25-1.32 0-2.5-.04-3.53-.14-1.03-.1-1.5-.22-1.4-.36l4.06-8.28c-2.83-5.93-4.24-8.9-4.24-8.93 0-.14.35-.27 1.07-.4.75-.11 1.58-.17 2.49-.17.94 0 1.82.04 2.66.14.84.07 1.31.18 1.4.32l1.91 5.84 2.34-6.05Z"/></svg>