<svg id="visual" viewBox="0 0 900 100" width="900" height="100" xmlns="http://www.w3.org/2000/svg" xmlns:xlink="http://www.w3.org/1999/xlink" version="1.1"><path d="M0 44L21.5 53C43 62 86 80 128.8 76C171.7 72 214.3 46 257.2 43.7C300 41.3 343 62.7 385.8 65C428.7 67.3 471.3 50.7 514.2 51.5C557 52.3 600 70.7 642.8 72.3C685.7 74 728.3 59 771.2 57.8C814 56.7 857 69.3 878.5 75.7L900 82L900 101L878.5 101C857 101 814 101 771.2 101C728.3 101 685.7 101 642.8 101C600 101 557 101 514.2 101C471.3 101 428.7 101 385.8 101C343 101 300 101 257.2 101C214.3 101 171.7 101 128.8 101C86 101 43 101 21.5 101L0 101Z" fill="#FFC7C7" stroke-linecap="round" stroke-linejoin="miter"></path></svg>